<?xml version="1.0" standalone="no"?><!DOCTYPE svg PUBLIC "-//W3C//DTD SVG 1.1//EN" "http://www.w3.org/Graphics/SVG/1.1/DTD/svg11.dtd"><svg t="1704426923104" class="icon" viewBox="0 0 1024 1024" version="1.1" xmlns="http://www.w3.org/2000/svg" p-id="1776" xmlns:xlink="http://www.w3.org/1999/xlink" width="200" height="200"><path d="M199.004737 1.787086a166.454251 166.454251 0 0 0-166.454251 166.45425v689.304413a166.454251 166.454251 0 0 0 166.454251 166.454251h519.020693a166.454251 166.454251 0 0 0 166.454251-166.454251V344.141611a63.313887 63.313887 0 0 0-18.636749-44.677138L586.546996 20.168537a63.058589 63.058589 0 0 0-44.677138-18.381451z" fill="#FC4A49" p-id="1777"></path><path d="M865.842932 299.464473L586.546996 20.168537a60.50561 60.50561 0 0 0-32.16754-16.849664 6.382448 6.382448 0 0 0-7.403639 6.12715v135.052606A194.537023 194.537023 0 0 0 741.768138 339.035652h135.052605a6.12715 6.12715 0 0 0 6.382448-7.148342 61.782099 61.782099 0 0 0-17.360259-32.422837z" fill="#F91716" p-id="1778"></path><path d="M748.661182 307.889304h124.074794a55.144353 55.144353 0 0 0-6.893044-8.424831L586.546996 20.168537a55.144353 55.144353 0 0 0-8.424832-6.893045v124.330093a170.539018 170.539018 0 0 0 170.539018 170.283719z" fill="#FFC3C3" p-id="1779"></path><path d="M193.132885 621.905759l23.742707-25.529793a79.652954 79.652954 0 0 0 52.336076 20.93443c21.955622 0 32.933433-7.148342 32.933433-21.700324a17.870855 17.870855 0 0 0-8.68013-15.062578 119.990027 119.990027 0 0 0-22.21092-10.211917l-27.572176-10.467215a53.867863 53.867863 0 0 1-41.868861-51.059586 45.953628 45.953628 0 0 1 20.168537-38.29469 80.16355 80.16355 0 0 1 51.059586-15.828471 91.907255 91.907255 0 0 1 64.590376 23.998005l-20.679132 23.742708a70.972825 70.972825 0 0 0-43.911244-15.573174 39.060583 39.060583 0 0 0-21.700324 5.361256 16.339068 16.339068 0 0 0-7.914236 14.296684 17.360259 17.360259 0 0 0 9.446023 15.062578 192.239342 192.239342 0 0 0 22.721516 9.701322l27.061581 10.211917a53.612565 53.612565 0 0 1 41.358265 51.059586 49.017203 49.017203 0 0 1-19.913239 39.826477 86.545999 86.545999 0 0 1-55.654949 16.849664 110.799302 110.799302 0 0 1-75.312889-27.316879zM353.970581 459.536275h43.14535l27.061581 91.141361c1.531788 4.595363 3.063575 9.701321 4.595363 15.062578l4.084766 15.062578c3.318873 12.764897 6.382448 22.976814 8.68013 30.380454h1.27649c1.531788-4.850661 3.063575-9.956619 4.595363-15.573174l4.340064-14.80728c3.574171-13.020194 6.382448-22.976814 8.68013-30.125156L486.470207 459.536275h41.613563l-62.292695 186.36749h-49.017203zM570.718524 624.458738a92.162553 92.162553 0 0 1-28.33807-71.48342 94.715532 94.715532 0 0 1 28.848666-72.249315 98.289703 98.289703 0 0 1 69.951633-25.529793 90.375467 90.375467 0 0 1 63.569185 23.998006l-21.955622 23.998005a59.22912 59.22912 0 0 0-40.337073-15.828471 54.123161 54.123161 0 0 0-41.868861 17.360259 65.611568 65.611568 0 0 0-16.339068 47.230117 67.90925 67.90925 0 0 0 15.317876 47.740713 58.463226 58.463226 0 0 0 45.69833 17.615557 41.358265 41.358265 0 0 0 25.529793-7.148342v-37.273498h-35.997008v-30.635751h73.015208v84.503615a96.24732 96.24732 0 0 1-66.63276 22.466218 99.310895 99.310895 0 0 1-70.462229-24.7639z" fill="#F5F6FA" p-id="1780"></path></svg>